<svg width="32" height="31" viewBox="0 0 32 31" fill="none" xmlns="http://www.w3.org/2000/svg">
<path d="M31.1133 15.0762C31.1133 6.74984 24.3635 0 16.0371 0C7.71078 0 0.960938 6.74984 0.960938 15.0762C0.960938 23.4026 7.71078 30.1524 16.0371 30.1524C24.3635 30.1524 31.1133 23.4026 31.1133 15.0762Z" fill="white"/>
<path d="M17.1006 23.4518V15.3516H19.8664L20.2811 12.1948H17.1006V10.1792C17.1006 9.2653 17.3589 8.64243 18.6921 8.64243H20.3925V5.81977C19.5694 5.73417 18.7422 5.69271 17.9146 5.69557C15.4629 5.69557 13.7845 7.16665 13.7845 9.86841V12.1948H11.0117V15.3516H13.7845V23.4518H17.1006Z" fill="#46178F"/>
</svg>
