<svg width="32" height="31" viewBox="0 0 32 31" fill="none" xmlns="http://www.w3.org/2000/svg">
<path d="M20.4951 8.02246H11.5078C10.0725 8.02246 8.90625 9.18876 8.90625 10.624V19.6099C8.90625 21.0452 10.0725 22.2131 11.5078 22.2131H20.4951C21.9288 22.2131 23.0968 21.0452 23.0968 19.6099V10.624C23.0967 9.1887 21.9288 8.02246 20.4951 8.02246ZM16.0006 19.7887C13.4253 19.7887 11.329 17.6923 11.329 15.117C11.329 12.5417 13.4254 10.4454 16.0006 10.4454C18.5776 10.4454 20.6723 12.5417 20.6723 15.117C20.6723 17.6923 18.5759 19.7887 16.0006 19.7887ZM20.8232 11.4113C20.213 11.4113 19.7176 10.9162 19.7176 10.306C19.7176 9.69719 20.213 9.20039 20.8232 9.20039C21.4317 9.20039 21.9288 9.69719 21.9288 10.306C21.9288 10.9162 21.4317 11.4113 20.8232 11.4113Z" fill="white"/>
<path d="M15.9994 12.4202C14.5133 12.4202 13.3027 13.6292 13.3027 15.1169C13.3027 16.6047 14.5133 17.8152 15.9994 17.8152C17.4872 17.8152 18.6978 16.6047 18.6978 15.1169C18.6978 13.6307 17.4872 12.4202 15.9994 12.4202Z" fill="white"/>
<path d="M16 0C7.67374 0 0.923828 6.74992 0.923828 15.0762C0.923828 23.4025 7.67374 30.1524 16 30.1524C24.3263 30.1524 31.0762 23.4025 31.0762 15.0762C31.0762 6.74998 24.3263 0 16 0ZM25.0694 19.6101C25.0694 22.1345 23.0174 24.1866 20.4945 24.1866H11.5072C8.98441 24.1866 6.93073 22.1346 6.93073 19.6101V10.6242C6.93073 8.10159 8.98441 6.04791 11.5072 6.04791H20.4945C23.0174 6.04791 25.0694 8.10159 25.0694 10.6242V19.6101Z" fill="white"/>
</svg>
