<svg width="31" height="31" viewBox="0 0 31 31" fill="none" xmlns="http://www.w3.org/2000/svg">
<path d="M0 15.0762C0 6.74987 6.74987 0 15.0762 0C23.4025 0 30.1524 6.74987 30.1524 15.0762C30.1524 23.4025 23.4025 30.1524 15.0762 30.1524C6.74987 30.1524 0 23.4025 0 15.0762Z" fill="white"/>
<path fill-rule="evenodd" clip-rule="evenodd" d="M10.8788 9.31124C10.8788 10.2969 10.1369 11.0856 8.94556 11.0856H8.9237C7.77672 11.0856 7.03516 10.2969 7.03516 9.31124C7.03516 8.30471 7.79927 7.53809 8.96805 7.53809C10.1369 7.53809 10.8567 8.30471 10.8788 9.31124ZM10.6538 12.4867V22.7522H7.23718V12.4867H10.6538ZM22.9752 22.7522L22.9753 16.8663C22.9753 13.7132 21.2898 12.2457 19.0415 12.2457C17.2275 12.2457 16.4154 13.242 15.962 13.941V12.487H12.5449C12.59 13.4503 12.5449 22.7525 12.5449 22.7525H15.962V17.0194C15.962 16.7126 15.9841 16.4065 16.0745 16.1869C16.3214 15.574 16.8836 14.9394 17.8275 14.9394C19.0643 14.9394 19.5588 15.8807 19.5588 17.2602V22.7522H22.9752Z" fill="#46178F"/>
</svg>
