<svg width="218" height="29" viewBox="0 0 218 29" fill="none" xmlns="http://www.w3.org/2000/svg">
<path fill-rule="evenodd" clip-rule="evenodd" d="M0 11.9119C5.36413 21.6857 14.4681 28.1152 24.7965 28.1152C25.7849 28.1152 26.7621 28.0563 27.7258 27.9413C27.9821 26.0104 28.1154 24.0289 28.1154 22.0092C28.1154 13.749 25.8865 6.12731 22.1262 -0.000488281L18.9704 11.9119H0Z" fill="white"/>
<path d="M42.5908 26.3514C42.4484 27.1628 42.0313 27.5735 41.3395 27.5836C41.1056 27.5836 40.8919 27.5184 40.6986 27.3882C40.3019 27.1278 40.1035 26.707 40.1035 26.126L42.8655 5.4352C42.8858 5.27493 42.9316 5.11465 43.0028 4.95437C43.2266 4.49357 43.5878 4.26318 44.0863 4.26318C44.2796 4.26318 44.4678 4.31326 44.6509 4.41344C45.0578 4.63382 45.2765 4.97441 45.307 5.4352L44.2999 13.5042C49.3152 7.9746 51.95 5.10463 52.2044 4.89427C52.5604 4.54366 52.9063 4.36836 53.242 4.36836C53.4658 4.36836 53.6744 4.42846 53.8677 4.54867C54.2542 4.77907 54.4475 5.10964 54.4475 5.54039C54.4475 5.84091 54.3356 6.15645 54.1118 6.48703C53.8371 6.83763 50.6937 10.2686 44.6814 16.7798C45.3426 17.3609 46.0853 18.022 46.9093 18.7633C51.182 22.5599 53.6133 24.7486 54.2034 25.3297C54.5798 25.7103 54.7731 26.0609 54.7832 26.3815C54.7832 26.6119 54.712 26.8272 54.5696 27.0276C54.3255 27.3982 53.9999 27.5836 53.593 27.5836C53.2369 27.5836 52.9063 27.4734 52.6011 27.253C52.2552 27.0126 49.244 24.3129 43.5674 19.154C43.0893 22.9004 42.7638 25.2996 42.5908 26.3514Z" fill="white"/>
<path d="M74.6817 25.1644C74.4172 24.373 74.285 23.3512 74.285 22.0991C74.285 21.1474 74.3816 20.0104 74.5749 18.6882C74.229 18.8584 73.8475 18.9837 73.4305 19.0638C73.3084 19.6749 73.1507 20.2959 72.9574 20.927C72.2656 23.231 71.4111 24.9841 70.3938 26.1861C70.2209 26.3865 70.0123 26.5818 69.7682 26.7722C68.9034 27.4333 67.993 27.7639 67.0367 27.7639C65.7752 27.7539 64.8749 27.1879 64.3357 26.0659C63.4405 27.1578 62.2096 27.7088 60.6429 27.7188C60.2869 27.7188 59.9512 27.6737 59.6358 27.5836C57.8453 27.0627 56.9501 25.1293 56.9501 21.7835C56.9501 21.7234 56.9501 21.6583 56.9501 21.5882C56.9704 19.9654 57.1485 18.4227 57.4842 16.9602C57.7792 15.688 58.2777 15.0468 58.9796 15.0368C59.6409 15.0468 59.9817 15.4425 60.002 16.2239C60.002 16.3741 59.9562 16.7147 59.8647 17.2457C59.5086 19.5196 59.3306 21.1574 59.3306 22.1592C59.3306 24.2428 59.8647 25.2946 60.9329 25.3146C62.3673 25.2145 63.3388 23.3663 63.8474 19.77C63.9797 18.7983 64.0763 17.7065 64.1374 16.4944C64.1475 16.3942 64.1526 16.3341 64.1526 16.314C64.234 15.5227 64.6257 15.122 65.3276 15.112C65.3988 15.112 65.47 15.117 65.5412 15.127C66.0499 15.2272 66.3042 15.6279 66.3042 16.3291C66.0499 18.9135 65.9227 21.1224 65.9227 22.9555C65.9227 23.216 65.9431 23.4815 65.9838 23.7519C66.1465 24.944 66.5891 25.54 67.3114 25.54C68.115 25.54 68.8628 24.939 69.5545 23.7369C70.0937 22.8053 70.6939 21.2276 71.3552 19.0037C71.0296 18.9135 70.7244 18.7933 70.4396 18.6431C69.3816 18.0521 68.8526 17.1154 68.8526 15.8332C68.8526 15.4125 68.9594 15.0118 69.173 14.6311C69.6206 13.8698 70.3328 13.4892 71.3094 13.4892C71.8079 13.4892 72.2809 13.6194 72.7285 13.8798C73.461 14.3206 73.8272 14.9367 73.8272 15.728C73.8272 16.0486 73.8018 16.4593 73.7509 16.9602C74.1477 16.7598 74.6817 16.4192 75.3532 15.9384C75.5465 15.8082 75.7753 15.738 76.0398 15.728C76.4468 15.738 76.7977 15.8683 77.0928 16.1187C77.2555 16.2489 77.342 16.3842 77.3522 16.5244C77.3522 16.6346 77.3166 16.7949 77.2454 17.0052C76.7164 18.7683 76.4519 20.2859 76.4519 21.5581C76.4519 22.3595 76.5383 23.1258 76.7113 23.8571C76.7113 23.8771 76.7164 23.9022 76.7265 23.9322C76.9605 24.7637 77.3878 25.1794 78.0083 25.1794C78.3135 25.1493 78.8222 24.929 79.5343 24.5182C80.165 24.1075 80.633 23.9022 80.9382 23.9022C81.0908 23.9022 81.2434 23.9573 81.396 24.0675C81.6605 24.2578 81.7927 24.4832 81.7927 24.7436C81.752 25.3046 81.3502 25.8806 80.5872 26.4716C79.6818 27.1127 78.7154 27.4333 77.6879 27.4333C77.4539 27.4333 77.2199 27.4083 76.9859 27.3582C75.8974 27.1177 75.1294 26.3865 74.6817 25.1644ZM70.6837 15.9384C70.6939 16.4994 71.05 16.9001 71.7519 17.1405C71.8536 16.6096 71.9045 16.2089 71.9045 15.9384C71.9045 15.8783 71.8943 15.8132 71.874 15.7431C71.8028 15.4726 71.6146 15.3374 71.3094 15.3374C71.2585 15.3374 71.1975 15.3474 71.1263 15.3674C70.8312 15.4475 70.6837 15.6379 70.6837 15.9384Z" fill="white"/>
<path d="M81.7164 10.9498C81.7266 10.9498 81.7775 10.9498 81.869 10.9498C82.4387 10.9698 82.9524 10.9798 83.4102 10.9798L84.0816 6.33677C84.1223 6.02623 84.1732 5.76578 84.2342 5.55541C84.4174 4.89427 84.7887 4.5637 85.3482 4.5637C85.4601 4.5637 85.572 4.57371 85.6839 4.59375C86.1519 4.70394 86.3858 5.13969 86.3858 5.90101C86.3858 6.14143 86.1824 7.83436 85.7755 10.9798H87.3777C87.6524 10.9798 87.8915 11.0349 88.0949 11.1451C88.451 11.3555 88.629 11.666 88.629 12.0767C88.629 12.257 88.5832 12.4273 88.4917 12.5876C88.2577 12.9682 87.8762 13.1586 87.3472 13.1586H85.455C84.6615 19.169 84.2648 22.5398 84.2648 23.2711C84.2648 23.7319 84.3614 24.1626 84.5547 24.5633C84.8395 25.1644 85.2159 25.4649 85.6839 25.4649C85.7958 25.4649 85.9128 25.4499 86.0349 25.4198C86.3095 25.3497 86.7012 25.1193 87.2099 24.7286C87.7083 24.3379 88.1254 24.1426 88.4612 24.1426C88.6036 24.1426 88.7409 24.1726 88.8732 24.2328C89.2394 24.4131 89.4225 24.6885 89.4225 25.0592C89.392 25.5801 89.0003 26.121 88.2475 26.682C87.3319 27.3331 86.3604 27.6587 85.3329 27.6587C84.3258 27.6487 83.5018 27.2329 82.8609 26.4115C82.2098 25.54 81.8843 24.4431 81.8843 23.1208C81.8843 22.8303 82.2861 19.5096 83.0898 13.1586H81.7164C81.6554 13.1586 81.5943 13.1586 81.5333 13.1586C80.8314 13.0985 80.4804 12.7378 80.4804 12.0767C80.4804 11.8964 80.5109 11.7311 80.5719 11.5808C80.7551 11.1601 81.1365 10.9498 81.7164 10.9498Z" fill="white"/>
<path d="M95.6026 15.7881C95.7858 15.2672 96.1622 15.0018 96.7318 14.9918H96.8234C97.0472 15.0018 97.271 15.0268 97.4948 15.0669C99.1429 15.3374 100.486 16.1938 101.523 17.6363C102.5 18.9887 102.988 20.5213 102.988 22.2343C102.988 23.8671 102.52 25.2996 101.584 26.5317C101.564 26.5518 101.544 26.5818 101.523 26.6219C101.137 27.0927 100.715 27.3281 100.257 27.3281C100.094 27.3281 99.9313 27.273 99.7685 27.1628C99.4531 26.9324 99.2955 26.6219 99.2955 26.2312C99.2955 26.101 99.3209 25.9658 99.3718 25.8255C99.3718 25.8255 99.4277 25.7203 99.5396 25.51C100.282 24.3279 100.659 23.1609 100.669 22.0089C100.669 21.8787 100.664 21.7434 100.654 21.6032C100.552 20.321 100.043 19.2241 99.1276 18.3125C98.5274 17.7115 97.9831 17.4059 97.4948 17.3959C97.3931 17.7866 97.21 18.5028 96.9455 19.5446C96.386 21.8386 95.8315 23.5916 95.2822 24.8037C94.4378 26.667 93.0187 27.6086 91.0248 27.6286C90.1702 27.6286 89.4632 27.3381 88.9037 26.7571C88.039 25.8556 87.6066 24.4181 87.6066 22.4447C87.6066 21.7835 87.7389 20.4863 88.0034 18.5529C88.1356 17.6113 88.2272 16.9251 88.278 16.4944C88.2882 16.3842 88.3035 16.274 88.3238 16.1638C88.4866 15.2121 88.8986 14.7363 89.5598 14.7363C89.6921 14.7363 89.8193 14.7513 89.9413 14.7814C90.3788 14.9016 90.5975 15.3273 90.5975 16.0586C90.5975 16.3491 90.5466 16.9752 90.4449 17.9369C90.1295 20.7818 89.9718 22.5498 89.9718 23.241C89.9718 23.7119 90.0685 24.1476 90.2618 24.5483C90.5466 25.1393 90.923 25.4348 91.391 25.4348C92.0319 25.4248 92.6118 24.969 93.1306 24.0675C93.5477 23.3262 94.0106 21.9839 94.5192 20.0405C94.5396 19.9503 94.9007 18.5329 95.6026 15.7881ZM88.8579 12.1368C88.8579 11.9565 88.9037 11.7812 88.9952 11.6109C89.1987 11.2202 89.5242 11.0249 89.9718 11.0249C90.155 11.0249 90.333 11.07 90.5059 11.1601C90.8925 11.3705 91.0858 11.696 91.0858 12.1368C91.0858 12.3171 91.04 12.4924 90.9485 12.6627C90.745 13.0434 90.4195 13.2337 89.9718 13.2337C89.7786 13.2337 89.6005 13.1886 89.4378 13.0985C89.0512 12.8881 88.8579 12.5676 88.8579 12.1368Z" fill="white"/>
<path d="M128.945 9.62746C128.721 9.08653 128.446 8.59568 128.121 8.15491C127.327 7.12313 126.452 6.60723 125.496 6.60723C124.876 6.60723 124.25 6.83262 123.619 7.2834C122.419 8.12486 121.386 9.58739 120.522 11.671C119.616 13.8147 119.163 15.9184 119.163 17.9819C119.163 19.9654 119.489 21.6182 120.14 22.9405C120.862 24.403 121.849 25.1343 123.1 25.1343C123.68 25.1343 124.326 24.8739 125.038 24.353C126.157 23.5215 127.119 22.3144 127.922 20.7317C127.943 20.6716 127.973 20.6115 128.014 20.5514C128.248 20.1607 128.589 19.9654 129.036 19.9654C129.25 19.9654 129.453 20.0155 129.647 20.1156C130.054 20.346 130.257 20.6966 130.257 21.1674C130.257 21.3377 130.206 21.5331 130.105 21.7535C129.453 23.1158 128.67 24.2728 127.755 25.2245C126.229 26.7972 124.591 27.5836 122.841 27.5836C122.617 27.5836 122.393 27.5685 122.17 27.5385C120.603 27.3181 119.306 26.4015 118.278 24.7887C117.139 22.9956 116.569 20.7517 116.569 18.0571C116.569 16.4543 116.803 14.8315 117.271 13.1886C118.004 10.6042 119.133 8.46044 120.659 6.75749C122.256 4.99444 123.945 4.11292 125.725 4.11292C126.488 4.11292 127.215 4.2782 127.907 4.60877C129.372 5.33002 130.471 6.68737 131.203 8.68082C131.285 8.87115 131.325 9.05648 131.325 9.23679C131.325 9.44715 131.269 9.6475 131.157 9.83783C130.913 10.2385 130.562 10.4389 130.105 10.4389C129.637 10.4088 129.25 10.1383 128.945 9.62746Z" fill="white"/>
<path d="M140.512 27.5836C138.06 27.4834 136.244 26.0108 135.064 23.1659C134.189 21.0222 133.752 18.3976 133.752 15.2923C133.752 15.132 133.762 14.9266 133.782 14.6762C133.925 12.5625 134.321 10.6242 134.972 8.86114C136.03 6.01621 137.526 4.59375 139.459 4.59375C139.56 4.59375 139.667 4.59876 139.779 4.60877C141.539 4.71896 142.419 5.72571 142.419 7.629C142.419 9.70259 141.514 12.0066 139.703 14.541C138.553 16.1538 137.348 17.461 136.086 18.4628C136.432 20.3661 136.814 21.7935 137.231 22.7452C138.004 24.5082 139.154 25.3898 140.679 25.3898C140.781 25.3898 140.888 25.3797 141 25.3597C141.336 25.2996 141.804 25.0592 142.404 24.6385C142.984 24.2478 143.436 24.0524 143.762 24.0524C143.904 24.0524 144.042 24.0975 144.174 24.1877C144.469 24.388 144.616 24.6585 144.616 24.9991C144.596 25.52 144.22 26.0559 143.487 26.6069C142.572 27.258 141.58 27.5836 140.512 27.5836ZM139.474 6.86268C138.874 6.87269 138.345 7.12814 137.887 7.629C136.727 8.92124 136.091 11.6209 135.98 15.728C136.59 15.117 137.2 14.3957 137.811 13.5643C139.499 11.2903 140.344 9.37202 140.344 7.80932C140.344 7.72918 140.323 7.63401 140.283 7.52382C140.12 7.08306 139.85 6.86268 139.474 6.86268Z" fill="white"/>
<path d="M155.725 20.4612C155.725 20.4612 156.132 18.8685 156.946 15.6829C157.16 15.162 157.536 14.8966 158.075 14.8866C158.279 14.8966 158.482 14.9166 158.686 14.9467C160.395 15.2171 161.783 16.0736 162.852 17.5161C163.849 18.8685 164.347 20.4111 164.347 22.1441C164.327 23.216 164.072 24.3079 163.584 25.4198C163.025 26.6319 162.368 27.238 161.616 27.238C161.412 27.238 161.219 27.1528 161.036 26.9825C160.771 26.7321 160.639 26.4566 160.639 26.1561C160.639 26.0259 160.664 25.8906 160.715 25.7504C160.715 25.7504 160.776 25.6402 160.898 25.4198C161.631 24.2678 162.002 23.1008 162.012 21.9187C162.012 21.7785 162.007 21.6383 161.997 21.498C161.895 20.2058 161.382 19.1089 160.456 18.2073C159.866 17.6063 159.327 17.3007 158.838 17.2907C158.737 17.6714 158.569 18.3626 158.335 19.3643C157.816 21.6082 157.317 23.241 156.839 24.2628C155.792 26.4566 154.271 27.5535 152.277 27.5535C150.995 27.5435 150.059 26.9074 149.469 25.6452C149.337 25.7955 149.184 25.9507 149.011 26.111C147.984 27.0727 146.946 27.5535 145.898 27.5535C145.247 27.5535 144.688 27.3882 144.22 27.0576C143.172 26.3264 142.648 24.8939 142.648 22.7602C142.648 22.4196 142.668 22.059 142.709 21.6783C142.923 19.9654 143.472 18.4427 144.357 17.1104C145.446 15.4776 146.748 14.6612 148.263 14.6612C148.925 14.6612 149.5 14.7864 149.988 15.0368C150.191 14.7964 150.461 14.6712 150.797 14.6612C150.929 14.6612 151.056 14.6762 151.178 14.7063C151.616 14.8265 151.834 15.2522 151.834 15.9835C151.834 16.274 151.783 16.9001 151.682 17.8617C151.366 20.7066 151.209 22.4747 151.209 23.1659C151.209 23.5466 151.275 23.9122 151.407 24.2628C151.661 24.974 152.063 25.3297 152.612 25.3297C153.274 25.3196 153.859 24.929 154.367 24.1576C154.795 23.4764 155.247 22.2443 155.725 20.4612ZM148.08 23.782C148.152 23.6718 148.238 23.4564 148.34 23.1359C148.757 21.7735 149.138 19.6648 149.484 16.8099C149.23 16.6897 148.996 16.6296 148.782 16.6296C148.589 16.6296 148.396 16.6546 148.202 16.7047C147.267 16.9852 146.473 17.8567 145.822 19.3192C145.232 20.6315 144.937 21.9388 144.937 23.241C144.937 23.4314 144.947 23.6117 144.967 23.782C145.059 24.7537 145.369 25.2395 145.898 25.2395C146.183 25.2395 146.529 25.0993 146.936 24.8188C147.414 24.4882 147.796 24.1426 148.08 23.782Z" fill="white"/>
<path d="M166.621 18.9436C166.631 18.9236 166.651 18.8785 166.682 18.8084C167.608 16.7448 168.07 15.703 168.07 15.6829C168.07 15.6729 168.076 15.6629 168.086 15.6529C168.289 15.142 168.676 14.8866 169.245 14.8866C169.449 14.8966 169.657 14.9166 169.871 14.9467C171.58 15.2071 172.969 16.0636 174.037 17.5161C175.024 18.8685 175.517 20.4111 175.517 22.1441C175.517 23.0557 175.334 24.0124 174.968 25.0141C174.439 26.4867 173.716 27.2229 172.801 27.2229C172.638 27.2229 172.47 27.1678 172.297 27.0576C171.972 26.8172 171.809 26.5067 171.809 26.126C171.809 25.9958 171.84 25.8606 171.901 25.7203C171.901 25.7203 171.957 25.6202 172.068 25.4198C172.801 24.2478 173.172 23.0808 173.182 21.9187C173.182 21.7885 173.177 21.6533 173.167 21.513C173.065 20.2208 172.557 19.1189 171.641 18.2073C171.041 17.6063 170.502 17.3007 170.024 17.2907C169.851 17.6113 169.479 18.3275 168.91 19.4395C168.91 19.4395 168.905 19.4495 168.894 19.4695C168.884 19.4895 168.874 19.5046 168.864 19.5146C168.426 20.346 167.964 20.7617 167.475 20.7617C167.333 20.7617 167.185 20.7317 167.033 20.6716C166.626 20.4913 166.422 20.1908 166.422 19.77C166.422 19.6097 166.473 19.3844 166.575 19.0939C166.595 19.0237 166.611 18.9736 166.621 18.9436Z" fill="white"/>
<path d="M185.1 23.9322C185.1 23.9422 185.105 23.9523 185.115 23.9623C185.441 24.8939 185.873 25.3597 186.412 25.3597C186.728 25.3397 187.236 25.1193 187.938 24.6986C188.569 24.2878 189.042 24.0825 189.358 24.0825C189.51 24.0825 189.663 24.1326 189.815 24.2328C190.08 24.4331 190.212 24.6635 190.212 24.924C190.171 25.4749 189.77 26.0459 189.007 26.6369C188.091 27.288 187.125 27.6136 186.107 27.6136C185.436 27.6136 184.856 27.4433 184.368 27.1027C183.228 26.3013 182.659 24.6735 182.659 22.2193C182.659 21.7384 182.679 21.2326 182.72 20.7016C182.801 19.6799 182.882 19.0538 182.964 18.8234C182.292 19.164 181.596 19.3343 180.873 19.3343C180.792 19.3343 180.67 19.3243 180.507 19.3042C180.426 19.2942 180.365 19.2892 180.324 19.2892C180.293 19.3092 180.176 19.3743 179.973 19.4845C179.291 19.8752 178.742 20.0705 178.325 20.0705C178.203 20.0705 178.076 20.0405 177.943 19.9804C177.628 19.8201 177.47 19.5897 177.47 19.2892C177.47 19.2391 177.475 19.189 177.486 19.1389C177.516 18.9386 177.674 18.7282 177.959 18.5078C178.071 18.4277 178.152 18.3626 178.203 18.3125C177.572 17.7415 177.252 16.9602 177.241 15.9684C177.241 15.5377 177.348 15.137 177.562 14.7664C178.009 13.995 178.722 13.6094 179.698 13.6094C180.197 13.6094 180.67 13.7396 181.117 14C181.85 14.4508 182.216 15.0719 182.216 15.8633C182.216 16.3341 182.145 16.7598 182.002 17.1405C182.155 17.0704 182.42 16.9051 182.796 16.6446C183.569 16.1237 184.113 15.8633 184.429 15.8633C184.846 15.8733 185.197 15.9985 185.482 16.2389C185.634 16.3691 185.716 16.5144 185.726 16.6747C185.726 16.7348 185.711 16.8249 185.68 16.9451C185.649 17.0353 185.634 17.1004 185.634 17.1405C185.105 18.9035 184.841 20.4161 184.841 21.6783C184.841 22.2293 184.907 22.8504 185.039 23.5416C185.07 23.7219 185.09 23.8521 185.1 23.9322ZM180.293 16.0586C180.293 15.9885 180.283 15.9133 180.263 15.8332C180.171 15.5828 179.983 15.4576 179.698 15.4576C179.637 15.4576 179.571 15.4676 179.5 15.4876C179.215 15.5778 179.073 15.7681 179.073 16.0586C179.083 16.5294 179.337 16.89 179.836 17.1405C180.131 16.8299 180.283 16.4693 180.293 16.0586Z" fill="white"/>
<path d="M192.547 14.9617C192.903 14.9717 193.239 15.0068 193.554 15.0669C195.121 15.3975 196.082 16.5995 196.438 18.6731C196.631 18.5629 196.952 18.3576 197.399 18.0571C198.01 17.6463 198.473 17.441 198.788 17.441C198.941 17.441 199.088 17.4861 199.23 17.5762C199.546 17.7766 199.704 18.047 199.704 18.3876C199.693 18.7282 199.47 19.1039 199.032 19.5146C198.412 20.0756 197.608 20.5514 196.621 20.9421C196.611 22.5048 196.372 23.8271 195.904 24.9089C195.141 26.672 193.89 27.5535 192.15 27.5535C191.529 27.5535 190.909 27.3582 190.288 26.9675C188.854 26.0359 188.137 24.358 188.137 21.9338C188.137 20.4712 188.386 19.1389 188.884 17.9369C189.668 16.0436 190.889 15.0519 192.547 14.9617ZM194.454 21.3327C194.057 21.3227 193.681 21.2826 193.325 21.2125C191.982 20.932 191.117 20.2308 190.731 19.1089C190.466 19.9503 190.334 20.8669 190.334 21.8586C190.334 22.3395 190.38 22.8053 190.471 23.2561C190.756 24.6284 191.377 25.3146 192.333 25.3146C192.649 25.3146 192.933 25.2195 193.188 25.0291C193.93 24.4682 194.353 23.236 194.454 21.3327ZM194.225 19.2892C194.225 19.2892 194.297 19.2892 194.439 19.2892C194.286 17.9168 193.92 17.2256 193.34 17.2156C193.289 17.2156 193.239 17.2206 193.188 17.2306C192.964 17.3108 192.852 17.4761 192.852 17.7265C192.852 17.9469 192.888 18.1622 192.959 18.3726C193.183 18.9837 193.605 19.2892 194.225 19.2892Z" fill="white"/>
<path d="M200.436 25.7654C200.395 26.126 200.288 26.4516 200.116 26.7421C199.821 27.2329 199.449 27.4784 199.002 27.4784C198.89 27.4784 198.783 27.4583 198.681 27.4183C198.173 27.2079 197.918 26.677 197.918 25.8255L199.215 16.3441C199.236 16.1638 199.266 15.9935 199.307 15.8332C199.48 15.0018 199.871 14.5861 200.482 14.5861C200.614 14.5861 200.741 14.6011 200.863 14.6311C201.301 14.7513 201.519 15.1771 201.519 15.9083C201.519 16.1988 201.504 16.5294 201.474 16.9001C201.484 16.88 201.499 16.855 201.519 16.8249C202.282 15.4826 203.366 14.8114 204.77 14.8114C205.187 14.8114 205.619 14.9216 206.067 15.142C206.759 15.4926 207.196 15.9634 207.379 16.5545C208.112 15.4726 209.124 14.9266 210.416 14.9166C210.914 14.9166 211.377 15.0669 211.804 15.3674C212.425 15.8082 212.735 16.3992 212.735 17.1405C212.735 17.6213 212.73 18.3576 212.72 19.3493C212.7 20.4412 212.689 21.2776 212.689 21.8586C212.689 22.3094 212.7 22.7001 212.72 23.0307C212.842 24.6034 213.33 25.3898 214.185 25.3898C214.287 25.3898 214.393 25.3797 214.505 25.3597C214.8 25.2896 215.233 25.0542 215.802 24.6535C216.362 24.2528 216.81 24.0524 217.145 24.0524C217.278 24.0524 217.405 24.0925 217.527 24.1726C217.842 24.363 218 24.6585 218 25.0592C218 25.0892 217.995 25.1293 217.985 25.1794C217.913 25.6602 217.491 26.1561 216.718 26.667C215.772 27.2981 214.831 27.6136 213.895 27.6136C213.132 27.6136 212.486 27.4083 211.957 26.9975C210.868 26.136 210.324 24.2478 210.324 21.3327C210.324 21.1624 210.329 20.887 210.339 20.5063C210.36 19.9553 210.37 19.4795 210.37 19.0788C210.37 18.027 210.248 17.4911 210.004 17.471C209.8 17.471 209.561 17.6263 209.287 17.9369C208.574 18.7483 207.811 20.2458 206.998 22.4296L206.738 24.9991C206.677 25.6602 206.591 26.1661 206.479 26.5167C206.265 27.1979 205.858 27.5385 205.258 27.5385C205.095 27.5385 204.943 27.5034 204.8 27.4333C204.363 27.2329 204.144 26.8172 204.144 26.1861C204.144 25.5751 204.287 24.4782 204.571 22.8954C204.958 20.7217 205.151 19.2341 205.151 18.4327C205.151 18.2223 205.131 18.037 205.09 17.8767C205.009 17.5362 204.795 17.3659 204.449 17.3659C204.266 17.3759 204.063 17.4811 203.839 17.6814C203.086 18.3826 202.252 20.0155 201.336 22.5799C200.736 24.2528 200.436 25.3146 200.436 25.7654Z" fill="white"/>
</svg>
