<svg width="373" height="48" viewBox="0 0 373 48" fill="none" xmlns="http://www.w3.org/2000/svg">
<path fill-rule="evenodd" clip-rule="evenodd" d="M0 20.3374C9.15792 37.0237 24.7007 48.0005 42.3339 48.0005C44.0213 48.0005 45.6896 47.9 47.3349 47.7035C47.7725 44.4071 48 41.0241 48 37.576C48 23.4738 44.1948 10.4617 37.7749 0L32.3872 20.3374H0Z" fill="white"/>
<path d="M72.7133 44.9891C72.4701 46.3744 71.758 47.0756 70.577 47.0927C70.1775 47.0927 69.8128 46.9815 69.4828 46.7592C68.8055 46.3146 68.4668 45.5963 68.4668 44.6044L73.1822 9.27994C73.2169 9.00631 73.2951 8.73267 73.4167 8.45904C73.7988 7.67234 74.4153 7.27899 75.2663 7.27899C75.5963 7.27899 75.9176 7.3645 76.2303 7.53552C76.925 7.91177 77.2984 8.49324 77.3505 9.27994L75.6311 23.0557C84.1935 13.6153 88.6918 8.71557 89.126 8.35643C89.7339 7.75785 90.3244 7.45856 90.8975 7.45856C91.2796 7.45856 91.6356 7.56118 91.9656 7.7664C92.6256 8.15975 92.9556 8.72412 92.9556 9.45951C92.9556 9.97258 92.7646 10.5113 92.3825 11.0757C91.9135 11.6742 86.5468 17.5317 76.2824 28.6481C77.4113 29.64 78.6792 30.7687 80.086 32.0343C87.3805 38.516 91.5314 42.2528 92.5388 43.2447C93.1814 43.8946 93.5114 44.4932 93.5288 45.0405C93.5288 45.4338 93.4072 45.8015 93.164 46.1435C92.7472 46.7763 92.1914 47.0927 91.4967 47.0927C90.8888 47.0927 90.3244 46.9046 89.8033 46.5283C89.2128 46.1179 84.0719 41.5089 74.3806 32.7013C73.5643 39.0975 73.0085 43.1934 72.7133 44.9891Z" fill="white"/>
<path d="M127.5 42.9625C127.049 41.6115 126.823 39.8671 126.823 37.7293C126.823 36.1046 126.988 34.1635 127.318 31.906C126.728 32.1968 126.076 32.4105 125.364 32.5474C125.156 33.5906 124.887 34.6509 124.557 35.7284C123.376 39.6618 121.917 42.6547 120.18 44.707C119.885 45.049 119.529 45.3825 119.112 45.7074C117.635 46.8362 116.081 47.4005 114.448 47.4005C112.295 47.3834 110.758 46.4172 109.837 44.5017C108.309 46.3659 106.207 47.3065 103.533 47.3236C102.925 47.3236 102.352 47.2466 101.813 47.0927C98.7565 46.2034 97.2281 42.9027 97.2281 37.1906C97.2281 37.088 97.2281 36.9768 97.2281 36.8571C97.2629 34.0866 97.5668 31.4528 98.1399 28.9559C98.6436 26.784 99.4946 25.6894 100.693 25.6723C101.822 25.6894 102.404 26.3649 102.439 27.6989C102.439 27.9554 102.36 28.5369 102.204 29.4433C101.596 33.3255 101.292 36.1217 101.292 37.8319C101.292 41.3892 102.204 43.1849 104.028 43.2191C106.477 43.0481 108.135 39.8927 109.004 33.7531C109.229 32.0942 109.394 30.23 109.499 28.1607C109.516 27.9896 109.525 27.887 109.525 27.8528C109.664 26.5018 110.332 25.8177 111.531 25.8006C111.652 25.8006 111.774 25.8091 111.895 25.8262C112.764 25.9973 113.198 26.6813 113.198 27.8785C112.764 32.2908 112.547 36.0618 112.547 39.1915C112.547 39.6362 112.581 40.0894 112.651 40.5512C112.929 42.5863 113.684 43.6039 114.917 43.6039C116.289 43.6039 117.566 42.5778 118.747 40.5255C119.668 38.935 120.692 36.2414 121.821 32.4447C121.265 32.2908 120.744 32.0856 120.258 31.8291C118.452 30.82 117.549 29.221 117.549 27.0319C117.549 26.3136 117.731 25.6296 118.096 24.9797C118.86 23.6799 120.076 23.03 121.743 23.03C122.594 23.03 123.402 23.2524 124.166 23.697C125.416 24.4495 126.042 25.5013 126.042 26.8524C126.042 27.3996 125.998 28.1008 125.911 28.9559C126.589 28.6139 127.5 28.0324 128.647 27.2115C128.977 26.9892 129.368 26.8695 129.819 26.8524C130.514 26.8695 131.113 27.0918 131.617 27.5193C131.895 27.7417 132.042 27.9725 132.06 28.212C132.06 28.4001 131.999 28.6737 131.877 29.0329C130.974 32.0429 130.522 34.6338 130.522 36.8058C130.522 38.174 130.67 39.4823 130.965 40.7307C130.965 40.7649 130.974 40.8077 130.991 40.859C131.391 42.2785 132.12 42.9882 133.18 42.9882C133.701 42.9369 134.569 42.5606 135.785 41.8595C136.862 41.1583 137.661 40.8077 138.182 40.8077C138.442 40.8077 138.703 40.9017 138.963 41.0899C139.415 41.4148 139.641 41.7996 139.641 42.2443C139.571 43.202 138.885 44.1853 137.583 45.1944C136.037 46.2889 134.387 46.8362 132.633 46.8362C132.233 46.8362 131.834 46.7934 131.434 46.7079C129.576 46.2975 128.265 45.049 127.5 42.9625ZM120.675 27.2115C120.692 28.1692 121.3 28.8533 122.498 29.2638C122.672 28.3573 122.759 27.6733 122.759 27.2115C122.759 27.1089 122.742 26.9977 122.707 26.878C122.585 26.4163 122.264 26.1854 121.743 26.1854C121.656 26.1854 121.552 26.2025 121.43 26.2367C120.927 26.3735 120.675 26.6984 120.675 27.2115Z" fill="white"/>
<path d="M139.51 18.6947C139.528 18.6947 139.615 18.6947 139.771 18.6947C140.744 18.7289 141.621 18.746 142.402 18.746L143.548 10.8191C143.618 10.289 143.705 9.84431 143.809 9.48516C144.122 8.35643 144.756 7.79206 145.711 7.79206C145.902 7.79206 146.093 7.80916 146.284 7.84336C147.083 8.03149 147.482 8.77543 147.482 10.0752C147.482 10.4856 147.135 13.3759 146.44 18.746H149.176C149.645 18.746 150.053 18.84 150.4 19.0281C151.008 19.3873 151.312 19.9175 151.312 20.6186C151.312 20.9265 151.234 21.2172 151.077 21.4908C150.678 22.1407 150.027 22.4657 149.124 22.4657H145.893C144.538 32.7269 143.861 38.4818 143.861 39.7302C143.861 40.5169 144.026 41.2523 144.356 41.9364C144.842 42.9625 145.485 43.4756 146.284 43.4756C146.475 43.4756 146.675 43.45 146.883 43.3987C147.352 43.2789 148.021 42.8856 148.889 42.2186C149.74 41.5516 150.452 41.2181 151.025 41.2181C151.269 41.2181 151.503 41.2694 151.729 41.3721C152.354 41.6799 152.667 42.1502 152.667 42.783C152.615 43.6723 151.946 44.5958 150.661 45.5535C149.098 46.6652 147.439 47.221 145.685 47.221C143.965 47.2039 142.558 46.4941 141.464 45.0918C140.353 43.6039 139.797 41.7312 139.797 39.4737C139.797 38.9778 140.483 33.3084 141.855 22.4657H139.51C139.406 22.4657 139.302 22.4657 139.198 22.4657C137.999 22.3631 137.4 21.7474 137.4 20.6186C137.4 20.3108 137.452 20.0286 137.557 19.7721C137.869 19.0538 138.52 18.6947 139.51 18.6947Z" fill="white"/>
<path d="M163.218 26.955C163.53 26.0657 164.173 25.6125 165.146 25.5954H165.302C165.684 25.6125 166.066 25.6552 166.448 25.7236C169.262 26.1854 171.554 27.6476 173.326 30.1103C174.993 32.4191 175.827 35.0357 175.827 37.9602C175.827 40.7478 175.028 43.1934 173.43 45.297C173.395 45.3312 173.361 45.3825 173.326 45.4509C172.666 46.2547 171.945 46.6566 171.163 46.6566C170.886 46.6566 170.608 46.5625 170.33 46.3744C169.791 45.9811 169.522 45.4509 169.522 44.7839C169.522 44.5616 169.566 44.3307 169.652 44.0913C169.652 44.0913 169.748 43.9117 169.939 43.5526C171.207 41.5345 171.85 39.5421 171.867 37.5754C171.867 37.3531 171.858 37.1222 171.841 36.8827C171.667 34.6937 170.799 32.821 169.236 31.2647C168.211 30.2386 167.282 29.717 166.448 29.6999C166.274 30.3668 165.962 31.5896 165.51 33.3683C164.555 37.2846 163.608 40.2775 162.671 42.3469C161.229 45.5279 158.806 47.1355 155.402 47.1697C153.943 47.1697 152.736 46.6737 151.781 45.6818C150.305 44.1426 149.566 41.6884 149.566 38.3193C149.566 37.1906 149.792 34.9759 150.244 31.6752C150.47 30.0676 150.626 28.8961 150.713 28.1607C150.73 27.9725 150.756 27.7844 150.791 27.5963C151.069 25.9716 151.772 25.1593 152.901 25.1593C153.127 25.1593 153.344 25.1849 153.552 25.2362C154.299 25.4414 154.673 26.1683 154.673 27.4167C154.673 27.9127 154.586 28.9816 154.412 30.6234C153.874 35.4804 153.604 38.4989 153.604 39.6789C153.604 40.4827 153.769 41.2267 154.099 41.9108C154.586 42.9198 155.228 43.4243 156.027 43.4243C157.122 43.4072 158.111 42.6291 158.997 41.0899C159.709 39.8243 160.5 37.5326 161.368 34.2148C161.403 34.0609 162.019 31.6409 163.218 26.955ZM151.703 20.7213C151.703 20.4134 151.781 20.1141 151.937 19.8234C152.285 19.1564 152.84 18.8229 153.604 18.8229C153.917 18.8229 154.221 18.8999 154.516 19.0538C155.176 19.4129 155.506 19.9688 155.506 20.7213C155.506 21.0291 155.428 21.3284 155.272 21.6191C154.924 22.269 154.369 22.5939 153.604 22.5939C153.275 22.5939 152.971 22.517 152.693 22.3631C152.033 22.0039 151.703 21.4566 151.703 20.7213Z" fill="white"/>
<path d="M220.141 16.4372C219.759 15.5137 219.29 14.6757 218.734 13.9232C217.38 12.1616 215.886 11.2809 214.253 11.2809C213.194 11.2809 212.126 11.6657 211.049 12.4353C209 13.8719 207.237 16.3688 205.76 19.926C204.215 23.5859 203.442 27.1773 203.442 30.7003C203.442 34.0866 203.998 36.9084 205.109 39.1659C206.342 41.6628 208.027 42.9112 210.163 42.9112C211.153 42.9112 212.256 42.4666 213.472 41.5773C215.382 40.1578 217.024 38.097 218.396 35.3949C218.43 35.2923 218.482 35.1896 218.552 35.087C218.951 34.42 219.533 34.0866 220.297 34.0866C220.662 34.0866 221.01 34.1721 221.34 34.3431C222.034 34.7364 222.382 35.335 222.382 36.1388C222.382 36.4295 222.295 36.763 222.121 37.1393C221.01 39.4652 219.672 41.4405 218.109 43.0652C215.504 45.7502 212.708 47.0927 209.72 47.0927C209.338 47.0927 208.956 47.0671 208.574 47.0157C205.899 46.6395 203.685 45.0747 201.931 42.3212C199.986 39.2599 199.013 35.4291 199.013 30.8286C199.013 28.0923 199.412 25.3217 200.211 22.517C201.462 18.1046 203.39 14.4448 205.995 11.5374C208.722 8.52745 211.605 7.02246 214.644 7.02246C215.947 7.02246 217.189 7.30465 218.37 7.86902C220.871 9.10037 222.746 11.4177 223.997 14.821C224.136 15.146 224.205 15.4624 224.205 15.7702C224.205 16.1293 224.11 16.4714 223.919 16.7963C223.502 17.4804 222.903 17.8224 222.121 17.8224C221.322 17.7711 220.662 17.3094 220.141 16.4372Z" fill="white"/>
<path d="M239.888 47.0927C235.703 46.9217 232.603 44.4077 230.588 39.5507C229.094 35.8908 228.347 31.4101 228.347 26.1084C228.347 25.8348 228.365 25.4842 228.4 25.0566C228.643 21.4481 229.32 18.1388 230.432 15.1289C232.238 10.2719 234.791 7.84336 238.091 7.84336C238.265 7.84336 238.447 7.85191 238.638 7.86902C241.643 8.05714 243.145 9.7759 243.145 13.0253C243.145 16.5654 241.599 20.4989 238.508 24.8258C236.545 27.5792 234.487 29.811 232.333 31.5212C232.924 34.7706 233.575 37.2077 234.287 38.8324C235.607 41.8424 237.57 43.3473 240.175 43.3473C240.349 43.3473 240.531 43.3302 240.722 43.296C241.295 43.1934 242.094 42.783 243.119 42.0647C244.109 41.3977 244.882 41.0642 245.438 41.0642C245.681 41.0642 245.915 41.1412 246.141 41.2951C246.645 41.6371 246.896 42.0989 246.896 42.6804C246.862 43.5697 246.219 44.4846 244.969 45.4253C243.405 46.5369 241.712 47.0927 239.888 47.0927ZM238.117 11.717C237.092 11.7341 236.189 12.1702 235.408 13.0253C233.428 15.2315 232.342 19.8405 232.151 26.8524C233.193 25.8091 234.235 24.5778 235.277 23.1583C238.16 19.2761 239.602 16.0011 239.602 13.3331C239.602 13.1963 239.567 13.0339 239.498 12.8457C239.22 12.0932 238.76 11.717 238.117 11.717Z" fill="white"/>
<path d="M265.862 34.9331C265.862 34.9331 266.557 32.2139 267.946 26.7754C268.311 25.8861 268.954 25.4329 269.874 25.4158C270.222 25.4329 270.569 25.4671 270.916 25.5184C273.834 25.9802 276.205 27.4424 278.029 29.9051C279.731 32.2139 280.582 34.8476 280.582 37.8063C280.547 39.6362 280.113 41.5003 279.279 43.3987C278.324 45.468 277.204 46.5027 275.918 46.5027C275.571 46.5027 275.241 46.3573 274.928 46.0666C274.477 45.639 274.251 45.1687 274.251 44.6557C274.251 44.4333 274.294 44.2024 274.381 43.963C274.381 43.963 274.485 43.7749 274.694 43.3987C275.944 41.4319 276.578 39.4395 276.596 37.4215C276.596 37.182 276.587 36.9426 276.57 36.7032C276.396 34.497 275.519 32.6243 273.938 31.0851C272.931 30.059 272.01 29.5374 271.177 29.5203C271.003 30.1702 270.717 31.3502 270.317 33.0604C269.431 36.8913 268.58 39.6789 267.764 41.4234C265.975 45.1687 263.379 47.0414 259.975 47.0414C257.786 47.0243 256.188 45.9383 255.181 43.7834C254.955 44.04 254.695 44.3051 254.399 44.5787C252.645 46.2205 250.874 47.0414 249.085 47.0414C247.973 47.0414 247.018 46.7592 246.219 46.1948C244.43 44.9464 243.536 42.5008 243.536 38.858C243.536 38.2766 243.57 37.6609 243.64 37.011C244.005 34.0866 244.943 31.487 246.454 29.2125C248.312 26.4248 250.535 25.031 253.123 25.031C254.252 25.031 255.233 25.2448 256.067 25.6723C256.414 25.2619 256.874 25.0481 257.447 25.031C257.673 25.031 257.89 25.0566 258.099 25.1079C258.846 25.3132 259.219 26.04 259.219 27.2885C259.219 27.7844 259.132 28.8533 258.958 30.4951C258.42 35.3521 258.151 38.3706 258.151 39.5507C258.151 40.2006 258.264 40.8248 258.49 41.4234C258.924 42.6376 259.61 43.2447 260.548 43.2447C261.677 43.2276 262.675 42.5606 263.544 41.2438C264.273 40.0808 265.046 37.9773 265.862 34.9331ZM252.81 40.6025C252.932 40.4143 253.079 40.0466 253.253 39.4994C253.965 37.1735 254.617 33.5735 255.207 28.6994C254.773 28.4942 254.373 28.3915 254.009 28.3915C253.679 28.3915 253.349 28.4343 253.019 28.5198C251.421 28.9987 250.066 30.4866 248.955 32.9835C247.947 35.2238 247.444 37.4557 247.444 39.6789C247.444 40.0039 247.461 40.3117 247.496 40.6025C247.652 42.2614 248.182 43.0908 249.085 43.0908C249.571 43.0908 250.162 42.8514 250.856 42.3725C251.673 41.8082 252.324 41.2181 252.81 40.6025Z" fill="white"/>
<path d="M284.463 32.3421C284.481 32.3079 284.515 32.231 284.568 32.1113C286.148 28.5882 286.938 26.8096 286.938 26.7754C286.938 26.7583 286.947 26.7412 286.964 26.7241C287.312 25.8519 287.972 25.4158 288.944 25.4158C289.292 25.4329 289.648 25.4671 290.012 25.5184C292.93 25.963 295.301 27.4253 297.125 29.9051C298.809 32.2139 299.652 34.8476 299.652 37.8063C299.652 39.3626 299.339 40.9958 298.714 42.706C297.811 45.22 296.577 46.477 295.014 46.477C294.736 46.477 294.45 46.383 294.155 46.1948C293.599 45.7844 293.321 45.2542 293.321 44.6044C293.321 44.382 293.373 44.1511 293.477 43.9117C293.477 43.9117 293.573 43.7407 293.764 43.3987C295.014 41.3977 295.648 39.4053 295.666 37.4215C295.666 37.1991 295.657 36.9683 295.64 36.7288C295.466 34.5227 294.598 32.6414 293.034 31.0851C292.01 30.059 291.089 29.5374 290.273 29.5203C289.978 30.0676 289.344 31.2904 288.371 33.1887C288.371 33.1887 288.362 33.2058 288.345 33.24C288.328 33.2742 288.31 33.2999 288.293 33.317C287.546 34.7364 286.756 35.4462 285.922 35.4462C285.679 35.4462 285.427 35.3949 285.167 35.2923C284.472 34.9844 284.125 34.4713 284.125 33.7531C284.125 33.4794 284.211 33.0946 284.385 32.5987C284.42 32.479 284.446 32.3934 284.463 32.3421Z" fill="white"/>
<path d="M316.012 40.859C316.012 40.8761 316.021 40.8932 316.038 40.9103C316.594 42.5008 317.332 43.296 318.253 43.296C318.791 43.2618 319.659 42.8856 320.858 42.1673C321.935 41.4661 322.742 41.1155 323.281 41.1155C323.541 41.1155 323.802 41.201 324.062 41.3721C324.514 41.7141 324.74 42.1074 324.74 42.5521C324.67 43.4927 323.984 44.4675 322.682 45.4766C321.118 46.5882 319.468 47.144 317.732 47.144C316.585 47.144 315.595 46.8533 314.762 46.2718C312.816 44.9036 311.844 42.1245 311.844 37.9345C311.844 37.1136 311.879 36.25 311.948 35.3436C312.087 33.5991 312.226 32.5303 312.365 32.1369C311.219 32.7184 310.029 33.0091 308.796 33.0091C308.657 33.0091 308.448 32.992 308.171 32.9578C308.032 32.9407 307.927 32.9322 307.858 32.9322C307.806 32.9664 307.606 33.0775 307.259 33.2656C306.095 33.9326 305.157 34.2661 304.445 34.2661C304.237 34.2661 304.02 34.2148 303.794 34.1122C303.255 33.8386 302.986 33.4452 302.986 32.9322C302.986 32.8466 302.995 32.7611 303.012 32.6756C303.064 32.3336 303.334 31.9744 303.82 31.5982C304.011 31.4614 304.15 31.3502 304.237 31.2647C303.16 30.2899 302.613 28.9559 302.595 27.2628C302.595 26.5274 302.778 25.8433 303.143 25.2106C303.907 23.8937 305.122 23.2353 306.79 23.2353C307.641 23.2353 308.448 23.4576 309.213 23.9022C310.463 24.6718 311.088 25.7322 311.088 27.0832C311.088 27.887 310.967 28.6139 310.724 29.2638C310.984 29.144 311.436 28.8619 312.078 28.4172C313.398 27.5279 314.328 27.0832 314.866 27.0832C315.578 27.1003 316.177 27.3141 316.664 27.7246C316.924 27.9469 317.063 28.1949 317.08 28.4685C317.08 28.5711 317.054 28.725 317.002 28.9303C316.95 29.0842 316.924 29.1953 316.924 29.2638C316.021 32.2737 315.569 34.8561 315.569 37.011C315.569 37.9516 315.682 39.012 315.908 40.192C315.96 40.4998 315.995 40.7222 316.012 40.859ZM307.806 27.4167C307.806 27.297 307.788 27.1687 307.754 27.0319C307.597 26.6044 307.276 26.3906 306.79 26.3906C306.686 26.3906 306.573 26.4077 306.451 26.4419C305.965 26.5958 305.722 26.9208 305.722 27.4167C305.739 28.2205 306.173 28.8362 307.024 29.2638C307.528 28.7336 307.788 28.1179 307.806 27.4167Z" fill="white"/>
<path d="M328.726 25.544C329.333 25.5611 329.907 25.621 330.445 25.7236C333.12 26.288 334.761 28.3402 335.369 31.8804C335.699 31.6923 336.246 31.3417 337.01 30.8286C338.052 30.1274 338.842 29.7768 339.381 29.7768C339.641 29.7768 339.893 29.8538 340.136 30.0077C340.675 30.3497 340.944 30.8115 340.944 31.393C340.927 31.9744 340.544 32.6158 339.798 33.317C338.738 34.2747 337.366 35.087 335.681 35.754C335.664 38.4219 335.256 40.6794 334.457 42.5264C333.154 45.5364 331.018 47.0414 328.048 47.0414C326.989 47.0414 325.929 46.7079 324.87 46.0409C322.421 44.4504 321.197 41.5858 321.197 37.4471C321.197 34.9502 321.622 32.6756 322.473 30.6234C323.81 27.3911 325.895 25.698 328.726 25.544ZM331.982 36.421C331.305 36.4039 330.662 36.3355 330.054 36.2158C327.762 35.7369 326.285 34.5398 325.625 32.6243C325.174 34.0609 324.948 35.6257 324.948 37.3189C324.948 38.1398 325.026 38.935 325.182 39.7046C325.669 42.0476 326.728 43.2191 328.361 43.2191C328.899 43.2191 329.386 43.0566 329.82 42.7317C331.088 41.774 331.808 39.6704 331.982 36.421ZM331.591 32.9322C331.591 32.9322 331.713 32.9322 331.956 32.9322C331.695 30.5892 331.07 29.4091 330.08 29.392C329.993 29.392 329.907 29.4006 329.82 29.4177C329.438 29.5545 329.247 29.8367 329.247 30.2642C329.247 30.6405 329.307 31.0082 329.429 31.3673C329.811 32.4105 330.532 32.9322 331.591 32.9322Z" fill="white"/>
<path d="M342.194 43.9887C342.125 44.6044 341.943 45.1602 341.647 45.6561C341.144 46.4941 340.51 46.9131 339.746 46.9131C339.554 46.9131 339.372 46.8789 339.198 46.8105C338.33 46.4514 337.896 45.545 337.896 44.0913L340.11 27.9041C340.145 27.5963 340.197 27.3056 340.267 27.0319C340.562 25.6125 341.23 24.9027 342.273 24.9027C342.498 24.9027 342.715 24.9284 342.924 24.9797C343.671 25.1849 344.044 25.9117 344.044 27.1602C344.044 27.6562 344.018 28.2205 343.966 28.8533C343.983 28.8191 344.009 28.7763 344.044 28.725C345.347 26.4334 347.196 25.2875 349.593 25.2875C350.305 25.2875 351.043 25.4756 351.808 25.8519C352.989 26.4505 353.735 27.2543 354.048 28.2633C355.299 26.4163 357.027 25.4842 359.232 25.4671C360.083 25.4671 360.874 25.7236 361.603 26.2367C362.663 26.9892 363.192 27.9982 363.192 29.2638C363.192 30.0847 363.184 31.3417 363.166 33.0348C363.131 34.8989 363.114 36.3269 363.114 37.3189C363.114 38.0884 363.131 38.7554 363.166 39.3198C363.375 42.0048 364.208 43.3473 365.667 43.3473C365.841 43.3473 366.023 43.3302 366.214 43.296C366.718 43.1763 367.456 42.7744 368.429 42.0903C369.384 41.4063 370.148 41.0642 370.721 41.0642C370.947 41.0642 371.164 41.1326 371.373 41.2694C371.911 41.5944 372.18 42.0989 372.18 42.783C372.18 42.8343 372.171 42.9027 372.154 42.9882C372.033 43.8091 371.312 44.6557 369.992 45.5279C368.377 46.6053 366.77 47.144 365.172 47.144C363.87 47.144 362.767 46.7934 361.864 46.0922C360.005 44.6215 359.076 41.3977 359.076 36.421C359.076 36.1303 359.085 35.6599 359.102 35.0101C359.137 34.0695 359.154 33.2571 359.154 32.573C359.154 30.7773 358.946 29.8623 358.529 29.8281C358.182 29.8281 357.773 30.0932 357.305 30.6234C356.089 32.0086 354.786 34.5654 353.397 38.2937L352.954 42.6804C352.85 43.8091 352.702 44.6728 352.511 45.2713C352.146 46.4343 351.452 47.0157 350.427 47.0157C350.149 47.0157 349.888 46.9559 349.645 46.8362C348.898 46.4941 348.525 45.7844 348.525 44.707C348.525 43.6637 348.768 41.7911 349.254 39.0889C349.914 35.3778 350.244 32.8381 350.244 31.4699C350.244 31.1108 350.21 30.7944 350.14 30.5208C350.001 29.9393 349.637 29.6486 349.046 29.6486C348.733 29.6657 348.386 29.8452 348.004 30.1873C346.719 31.3844 345.295 34.1721 343.731 38.5502C342.707 41.4063 342.194 43.2191 342.194 43.9887Z" fill="white"/>
</svg>
