<svg width="31" height="31" viewBox="0 0 31 31" fill="none" xmlns="http://www.w3.org/2000/svg">
<circle cx="15.9239" cy="15.0762" r="15.0762" fill="white"/>
<path d="M22.8389 14.0904V11.3995C21.5826 11.3995 20.6238 11.0631 20.005 10.4093C19.37 9.66315 19.0142 8.71823 18.999 7.73728V7.54303L16.4627 7.48145C16.4627 7.48145 16.4627 7.59041 16.4627 7.73728V18.4112C16.3757 18.888 16.1449 19.3267 15.8015 19.6678C15.4581 20.0089 15.0187 20.2362 14.5424 20.3189C14.0662 20.4015 13.5762 20.3356 13.1385 20.1301C12.7007 19.9246 12.3364 19.5892 12.0947 19.1694C11.853 18.7496 11.7455 18.2655 11.7868 17.7825C11.828 17.2995 12.0161 16.8408 12.3254 16.4684C12.6348 16.0959 13.0507 15.8277 13.5169 15.6998C13.9831 15.5719 14.4771 15.5906 14.9324 15.7534V13.1477C14.667 13.104 14.3985 13.0818 14.1295 13.0813C13.1617 13.0813 12.2157 13.3692 11.411 13.9085C10.6063 14.4478 9.97915 15.2144 9.6088 16.1112C9.23845 17.0081 9.14155 17.995 9.33035 18.9471C9.51915 19.8992 9.98518 20.7737 10.6695 21.4601C11.3538 22.1466 12.2257 22.614 13.1749 22.8034C14.1241 22.9928 15.1079 22.8956 16.002 22.5241C16.8961 22.1526 17.6603 21.5235 18.198 20.7164C18.7357 19.9092 19.0226 18.9603 19.0226 17.9895C19.0221 17.7884 19.0095 17.5875 18.9848 17.3878V13.0529C20.1381 13.7754 21.48 14.1366 22.8389 14.0904Z" fill="#46178F"/>
</svg>
