<svg width="32" height="31" viewBox="0 0 32 31" fill="none" xmlns="http://www.w3.org/2000/svg">
<path d="M15.9629 30.1524C24.2893 30.1524 31.0391 23.4026 31.0391 15.0762C31.0391 6.74984 24.2893 0 15.9629 0C7.63656 0 0.886719 6.74984 0.886719 15.0762C0.886719 23.4026 7.63656 30.1524 15.9629 30.1524Z" fill="white"/>
<path d="M25.1976 10.8346C24.5515 11.1211 23.8566 11.3149 23.1277 11.4014C23.8719 10.9555 24.443 10.2501 24.7125 9.40809C24.0162 9.82115 23.2446 10.1208 22.4241 10.2823C21.7668 9.58224 20.8302 9.14471 19.7931 9.14471C17.8033 9.14471 16.1895 10.7585 16.1895 12.7483C16.1895 13.0308 16.2214 13.3057 16.2833 13.5696C13.2883 13.4194 10.6328 11.9848 8.85535 9.80395C8.54521 10.3361 8.3673 10.9555 8.3673 11.6158C8.3673 12.8658 9.00396 13.9693 9.97038 14.6153C9.37994 14.5968 8.8239 14.4347 8.33827 14.1641C8.33801 14.1794 8.33801 14.1947 8.33801 14.2098C8.33801 15.9559 9.58069 17.4122 11.2289 17.743C10.9269 17.8258 10.6078 17.8696 10.2797 17.8696C10.047 17.8696 9.82149 17.8473 9.60166 17.8054C10.0601 19.2367 11.3907 20.2787 12.968 20.3079C11.7344 21.2746 10.1808 21.8506 8.492 21.8506C8.20175 21.8506 7.91419 21.8336 7.63281 21.8C9.22675 22.8229 11.1214 23.4192 13.1564 23.4192C19.7848 23.4192 23.4096 17.9282 23.4096 13.1657C23.4096 13.0096 23.4061 12.854 23.3992 12.6997C24.1038 12.1918 24.7147 11.5573 25.1976 10.8346Z" fill="#46178F"/>
</svg>
